<?xml version="1.0" encoding="utf-8"?>
<!-- Generator: Adobe Illustrator 16.0.0, SVG Export Plug-In . SVG Version: 6.00 Build 0)  -->
<!DOCTYPE svg PUBLIC "-//W3C//DTD SVG 1.1//EN" "http://www.w3.org/Graphics/SVG/1.1/DTD/svg11.dtd">
<svg version="1.1" id="Layer_3" xmlns="http://www.w3.org/2000/svg" xmlns:xlink="http://www.w3.org/1999/xlink" x="0px" y="0px"
	 width="612px" height="160.333px" viewBox="0 0 612 160.333" enable-background="new 0 0 612 160.333" xml:space="preserve">
<rect x="0.5" y="-0.833" fill="#00A7EA" width="611.5" height="161.166"/>
<path fill="#00DC00" d="M309.82-15.463c-4.354-0.886-8.604,1.926-9.49,6.283l-17.459,85.815c-1.557,3.058-4.984,4.852-8.51,4.135
	c-3.702-0.753-6.257-4.004-6.265-7.639l25.45-125.091c0.886-4.357-1.928-8.606-6.284-9.493c-3.528-0.718-31.089,2.434-32.748,5.423
	l-44.372,218.098l72.067-1.442l17.778-87.384L316.104-5.97C316.99-10.328,314.176-14.578,309.82-15.463z"/>
<path fill="#00DC00" d="M549.785,141.468c4.355,0.886,8.604-1.927,9.491-6.285l15.067-74.055c1.557-3.058,4.982-4.853,8.509-4.135
	c3.701,0.753,6.257,4.003,6.265,7.639L566.06,177.963c-0.887,4.357,1.929,8.607,6.284,9.494c3.527,0.718,40.889-0.441,42.547-3.431
	l44.372-218.098l-81.866-0.55l-17.778,87.383l-16.116,79.212C542.615,136.333,545.43,140.583,549.785,141.468z"/>
<path fill="#00DC00" d="M19.732,52.739c-4.354-0.886-8.604,1.927-9.49,6.283l-17.459,85.815c-1.557,3.057-4.984,4.852-8.51,4.134
	c-3.702-0.753-6.257-4.003-6.265-7.639L7.445-3.356c0.887-4.357-1.927-8.606-6.283-9.493c-3.528-0.718-31.089,2.434-32.748,5.424
	L-79.945,230.27l72.067-1.442l17.778-87.384l16.116-79.213C26.902,57.875,24.089,53.625,19.732,52.739z"/>
<path fill="#785CDF" d="M244.521,218.288c-1.857,9.128-10.764,15.023-19.891,13.166c-9.128-1.856-15.019-10.763-13.161-19.891
	l14.794-72.715c1.857-9.129,10.759-15.021,19.886-13.165c9.127,1.857,15.022,10.761,13.166,19.89L244.521,218.288z"/>
<path fill="#785CDF" d="M440.254,181.865c-1.599,7.854-9.263,12.927-17.115,11.329c-7.854-1.598-12.922-9.261-11.324-17.115
	l20.703-101.76c1.598-7.854,9.258-12.925,17.11-11.327s12.927,9.259,11.329,17.113L440.254,181.865z"/>
<path fill="#00DC00" d="M524.36,111.215c-1.598,7.854-9.263,12.927-17.115,11.329s-12.922-9.262-11.324-17.115l24.69-121.358
	c1.598-7.854,9.258-12.925,17.111-11.327c7.853,1.598,12.926,9.259,11.328,17.113L524.36,111.215z"/>
<path fill="#785CDF" d="M593.674,43.337c-0.383,1.881-2.221,3.097-4.1,2.714c-1.885-0.383-3.098-2.219-2.715-4.101l12.936-63.576
	c0.383-1.882,2.217-3.098,4.1-2.714c1.881,0.383,3.097,2.218,2.714,4.1L593.674,43.337z"/>
<path fill="#00DC00" d="M532.818,218.725c-0.383,1.882-2.22,3.099-4.101,2.716c-1.883-0.383-3.097-2.221-2.714-4.102l12.936-63.576
	c0.383-1.882,2.217-3.098,4.1-2.715c1.881,0.383,3.098,2.219,2.715,4.101L532.818,218.725z"/>
<path fill="#785CDF" d="M167.898,168.544c-1.637,8.045-9.487,13.242-17.531,11.605c-8.045-1.637-13.237-9.487-11.601-17.532
	l15.831-77.811c1.637-8.045,9.483-13.239,17.528-11.603c8.044,1.637,13.241,9.484,11.604,17.529L167.898,168.544z"/>
<path fill="#00DC00" d="M191.567,171.067c-0.831,4.085-4.816,6.722-8.899,5.892c-4.084-0.831-6.721-4.815-5.89-8.9l23.986-117.895
	c0.831-4.084,4.813-6.721,8.898-5.89c4.083,0.831,6.721,4.814,5.89,8.898L191.567,171.067z"/>
<path fill="#00DC00" d="M127.395,183.863c-0.831,4.084-4.816,6.722-8.9,5.891c-4.084-0.83-6.72-4.814-5.889-8.899L150.547-5.635
	c0.831-4.084,4.814-6.721,8.898-5.89c4.083,0.831,6.722,4.814,5.891,8.899L127.395,183.863z"/>
<path fill="#00DC00" d="M403.505,170.986c-0.831,4.084-4.817,6.721-8.899,5.89c-4.085-0.831-6.721-4.815-5.89-8.899l37.942-186.489
	c0.83-4.084,4.812-6.721,8.897-5.89c4.083,0.83,6.722,4.814,5.891,8.898L403.505,170.986z"/>
<path fill="#00DC00" d="M454.69,230.382c-0.831,4.084-4.816,6.722-8.899,5.891c-4.085-0.831-6.721-4.815-5.889-8.899l37.941-186.489
	c0.83-4.084,4.812-6.721,8.897-5.89c4.083,0.83,6.722,4.814,5.891,8.898L454.69,230.382z"/>
<path fill="#00DC00" d="M162.635,162.799c-0.831,4.084-4.816,6.722-8.899,5.891c-4.084-0.831-6.721-4.815-5.89-8.899l8.436-41.461
	c0.831-4.084,4.813-6.721,8.898-5.89c4.083,0.831,6.721,4.814,5.891,8.898L162.635,162.799z"/>
<rect x="81.713" y="-14.477" transform="matrix(0.9799 0.1994 -0.1994 0.9799 15.072 -17.9602)" fill="#785CDF" width="30.001" height="160.667"/>
<rect x="359.673" y="-41.602" transform="matrix(0.9799 0.1994 -0.1994 0.9799 16.9393 -73.7528)" fill="#785CDF" width="30.001" height="177.667"/>
<rect x="528.946" y="-10.88" transform="matrix(0.9799 0.1994 -0.1994 0.9799 28.7812 -104.9062)" fill="#785CDF" width="12.666" height="202.668"/>
<circle fill="#00DC00" cx="488.316" cy="19.499" r="7.833"/>
<circle fill="#00A7EA" cx="270.688" cy="99.382" r="7.833"/>
<path fill="#00DC00" d="M365.24,217.317l17.779-87.383l16.115-79.212c0.887-4.357-1.928-8.607-6.283-9.493
	c-4.354-0.886-8.604,1.927-9.49,6.284l-15.266,75.035c-1.557,3.058-4.984,4.852-8.51,4.134c-3.702-0.753-6.258-4.004-6.266-7.639
	L376.577,4.733c0.887-4.357-1.927-8.606-6.283-9.493c-4.356-0.886-8.606,1.926-9.493,6.283l-26.258,129.065
	c-1.596,2.953-4.956,4.671-8.415,3.968c-3.888-0.791-6.475-4.338-6.215-8.189l22.714-111.645c0.887-4.357-1.924-8.606-6.279-9.492
	c-3.736-0.76-7.375,1.208-8.901,4.527l-42.229,207.561L365.24,217.317z"/>
<path fill="#00DC00" d="M87.115,226.722l17.778-87.383l16.116-79.212c0.887-4.358-1.927-8.606-6.283-9.493
	c-4.354-0.886-8.604,1.926-9.49,6.284L89.97,131.954c-1.557,3.058-4.984,4.852-8.51,4.135c-3.702-0.753-6.257-4.004-6.265-7.64
	L98.452,14.138c0.887-4.357-1.927-8.606-6.283-9.492c-4.357-0.887-8.606,1.925-9.493,6.282L56.417,139.994
	c-1.595,2.953-4.956,4.672-8.414,3.968c-3.888-0.791-6.475-4.338-6.215-8.188L64.502,24.127c0.886-4.357-1.925-8.606-6.281-9.492
	c-3.735-0.76-7.374,1.208-8.901,4.528L7.092,226.723L87.115,226.722z"/>
</svg>